<?xml version="1.0" encoding="utf-8"?>
<!-- Svg Vector Icons : http://www.onlinewebfonts.com/icon -->
<!DOCTYPE svg PUBLIC "-//W3C//DTD SVG 1.1//EN" "http://www.w3.org/Graphics/SVG/1.1/DTD/svg11.dtd">
<svg version="1.1" xmlns="http://www.w3.org/2000/svg" xmlns:xlink="http://www.w3.org/1999/xlink" x="0px" y="0px" viewBox="0 0 1000 1000" enable-background="new 0 0 1000 1000" xml:space="preserve">
<metadata> Svg Vector Icons : http://www.onlinewebfonts.com/icon </metadata>
<g><g transform="translate(0.000000,511.000000) scale(0.100000,-0.100000)"><path d="M560.3,4697.1c-172.6-42.2-329.9-172.6-412.3-337.5l-47.9-95.9v-2311v-2311l47.9-95.9c59.5-122.7,174.5-237.8,297.3-297.3l95.9-47.9l696.2-5.7l694.3-5.8v-1102.7c0-1206.3-1.9-1181.4,113.1-1279.2c71-57.5,163-80.5,264.7-61.4c65.2,11.5,214.8,153.4,1290.7,1227.4L4817.8-808.9l1400,3.8l1400,5.7l95.9,47.9c122.7,59.5,237.8,174.5,297.3,297.3l47.9,95.9v2311v2311l-47.9,95.9c-59.4,122.7-174.5,237.8-297.3,297.3l-95.9,47.9l-3500,3.8C2192.3,4708.7,592.9,4704.8,560.3,4697.1z M2146.3,2670c49.9-15.3,134.2-69,186-115.1c234-211,274.2-548.5,94-807.4c-216.7-316.4-696.2-343.3-951.2-51.8c-218.6,245.5-205.2,606,28.8,838.1C1674.5,2706.5,1895.1,2754.4,2146.3,2670z M4294.2,2670c122.7-40.3,270.4-176.4,335.6-310.7c46-94,53.7-132.3,51.8-262.7c0-186-47.9-301.1-180.3-433.4c-124.7-124.7-270.4-176.4-460.3-166.8c-232.1,13.4-412.3,132.3-512.1,337.5c-46,94-53.7,132.3-53.7,272.3c0,138.1,7.7,176.4,51.8,258.9c49.9,97.8,180.3,232.1,266.6,280C3931.8,2719.9,4117.8,2729.5,4294.2,2670z M6486.3,2654.7c281.9-130.4,425.8-475.6,318.3-761.4c-51.8-138.1-170.7-272.3-297.3-339.4c-86.3-46-118.9-51.8-280-51.8c-166.9,0-191.8,5.8-285.8,57.5c-117,65.2-211,164.9-272.3,295.3c-59.5,122.7-61.4,356.7-3.8,483.3c46,103.6,155.3,230.1,243.6,285.8C6074,2725.6,6304.1,2737.1,6486.3,2654.7z"/><path d="M8682.2,1277.7c0-1791.2,1.9-1743.3-138.1-2027.1c-113.1-226.3-308.8-421.9-535-535.1c-278.1-138.1-272.3-138.1-1685.8-138.1H5067.1l-613.7-613.7L3839.7-2650h978.1h978.1l911-909c803.6-803.6,918.6-911,983.8-922.5c97.8-19.2,180.3,0,258.9,59.4c118.9,92.1,118.9,95.9,118.9,974.3v795.9l696.2,5.7l694.3,5.8l95.9,47.9c122.7,59.5,237.8,174.5,297.3,297.3l47.9,95.9v2311v2311l-47.9,95.9c-59.4,122.7-174.5,237.8-297.3,297.3c-90.1,46-117,47.9-483.3,53.7l-389.3,5.8V1277.7z"/></g></g>
</svg>